<svg width="165" height="24" viewBox="0 0 165 24" fill="none" xmlns="http://www.w3.org/2000/svg">
<path d="M12.9498 17.7L11.4698 14.37L6.72984 3.83001C5.77984 1.70001 3.66984 0.32001 1.33984 0.32001H0.559844C0.139844 0.32001 -0.130158 0.76001 0.0498418 1.13001L10.6298 22.99C10.9498 23.67 11.9198 23.66 12.2498 22.98L12.8798 21.67C13.4798 20.42 13.5098 18.97 12.9498 17.7ZM22.5698 0.32001C19.5798 0.32001 16.8698 2.09001 15.6598 4.83001L12.4698 12.08C12.1198 12.89 12.1198 13.8 12.4798 14.6C12.8198 15.33 13.2098 16.04 13.5198 16.78C13.8898 17.64 14.1598 18.62 13.9798 19.54C14.4898 18.24 15.1398 16.98 15.7398 15.72C16.5398 14.07 17.3298 12.42 18.1198 10.77C18.9698 9.00001 19.8198 7.24001 20.6698 5.47001C21.2798 4.20001 21.8898 2.93001 22.4998 1.66001C22.6398 1.39001 22.7698 1.11001 22.8998 0.84001C23.0098 0.60001 22.8398 0.32001 22.5698 0.32001ZM130.6 0.32001V18.84C130.6 21.51 132.77 23.68 135.44 23.68V5.16001C135.44 2.49001 133.27 0.32001 130.6 0.32001ZM118.73 19V5.16001C118.73 2.49001 116.56 0.32001 113.89 0.32001V23.68H128.84V19H118.73ZM112.13 5.00001V0.32001H97.1898V23.68H102.02V14.92H110.31V10.27H102.02V5.00001H112.13ZM82.9798 0.0100098C76.1998 0.0100098 70.9598 5.25001 70.9598 12C70.9598 18.75 76.1698 23.99 82.9798 23.99C89.7898 23.99 95.0698 18.78 95.0698 12C95.0698 5.22001 89.7598 0.0100098 82.9798 0.0100098ZM82.9798 19.22C78.9598 19.22 75.9198 16.14 75.9198 12C75.9198 7.86001 78.8998 4.78001 82.9798 4.78001C87.0598 4.78001 90.0798 7.85001 90.0798 12C90.0798 16.15 86.9998 19.22 82.9798 19.22ZM69.7898 4.97001V0.32001H54.5298V23.68H69.7898V19.03H59.3698V13.98H68.5598V9.61001H59.3698V4.97001H69.7898ZM39.4498 0.32001H31.5098V23.68H39.4498C47.1998 23.68 52.3898 19 52.3898 12C52.3898 5.00001 47.1998 0.32001 39.4498 0.32001ZM40.1398 19H36.3398V5.00001H40.1398C44.4398 5.00001 47.4298 7.85001 47.4298 12C47.4298 16.15 44.4398 19 40.1398 19ZM23.5898 0.32001V23.68H28.4298V5.16001C28.4298 2.49001 26.2598 0.32001 23.5898 0.32001ZM150.86 15.04L159.15 23.59H157.62C154.9 23.59 152.29 22.5 150.38 20.57L147.97 18.13L147.53 17.74L145.9 19.39C143.86 21.45 142.1 22.82 139.04 23.35C138.33 23.47 137.69 22.92 137.69 22.2C137.69 21.9 137.81 21.6 138.03 21.38L144.66 14.76L144.75 14.69L144.14 14.06L140.64 10.52H140.65C138.7 8.55001 137.6 5.89001 137.6 3.12001C137.6 2.56001 138.28 2.28001 138.68 2.68001L147.6 11.71L148.2 11.09L149.23 10.05L155.46 3.81001C157.63 1.63001 160.59 0.410009 163.67 0.410009H164.66L151.6 13.5L151.38 13.72L150.45 14.68L150.86 15.04Z" fill="url(#paint0_linear_92_204)"/>
<defs>
<linearGradient id="paint0_linear_92_204" x1="-10.7202" y1="25.75" x2="172.74" y2="-2.2" gradientUnits="userSpaceOnUse">
<stop stop-color="#8903FF"/>
<stop offset="1" stop-color="#3547FF"/>
</linearGradient>
</defs>
</svg>
